<svg width="792" height="705" viewBox="0 0 792 705" fill="none" xmlns="http://www.w3.org/2000/svg">
<g clip-path="url(#clip0)">
<path d="M775.664 557.078C775.664 529.555 767.937 502.585 753.363 479.237C738.79 455.889 717.954 437.101 693.229 425.012C668.503 412.923 640.88 408.017 613.504 410.854C586.127 413.691 560.097 424.156 538.376 441.059C519.887 419.666 496.031 403.588 469.263 394.479C442.496 385.371 413.784 383.562 386.085 389.239C358.385 394.915 332.7 407.872 311.673 426.776C290.645 445.679 275.037 469.845 266.454 496.786C252.093 484.019 234.846 474.932 216.196 470.306C197.546 465.68 178.052 465.653 159.389 470.228C140.727 474.803 123.455 483.842 109.059 496.569C94.6626 509.296 83.5734 525.329 76.7446 543.29C69.9158 561.25 67.5519 580.601 69.8561 599.677C72.1604 618.754 79.0638 636.985 89.9728 652.803C100.882 668.621 115.47 681.552 132.482 690.485C149.494 699.418 168.422 704.085 187.637 704.085C189.481 704.085 191.313 704.037 193.136 703.953C195.019 704.035 196.91 704.085 198.813 704.085H644.131C676.173 704.083 707.067 692.153 730.794 670.619C754.522 649.085 769.383 619.489 772.483 587.598C774.601 577.563 775.667 567.334 775.664 557.078Z" fill="white"/>
<path d="M188.675 462.248C240.283 462.248 282.12 420.411 282.12 368.803C282.12 317.194 240.283 275.358 188.675 275.358C137.067 275.358 95.2298 317.194 95.2298 368.803C95.2298 420.411 137.067 462.248 188.675 462.248Z" fill="#FFD23F"/>
<path d="M188.98 165.056H188.98C176.331 165.056 166.077 175.31 166.077 187.959V234.498C166.077 247.147 176.331 257.402 188.98 257.402H188.98C201.629 257.402 211.883 247.147 211.883 234.498V187.959C211.883 175.31 201.629 165.056 188.98 165.056Z" fill="#FFD23F"/>
<path d="M365.277 267.194L365.277 267.194C358.953 256.239 344.945 252.486 333.991 258.811L293.687 282.08C282.732 288.405 278.979 302.412 285.304 313.367L285.304 313.367C291.628 324.321 305.636 328.074 316.59 321.75L356.894 298.48C367.849 292.156 371.602 278.148 365.277 267.194Z" fill="#FFD23F"/>
<path d="M12.0723 470.412L12.0723 470.412C18.3968 481.366 32.4042 485.119 43.3586 478.795L83.6628 455.525C94.6173 449.201 98.3705 435.193 92.046 424.239C85.7215 413.284 71.7141 409.531 60.7597 415.856L20.4554 439.125C9.50102 445.45 5.74776 459.457 12.0723 470.412Z" fill="#FFD23F"/>
<path d="M12.3777 266.665L12.3776 266.665C6.05311 277.619 9.80637 291.627 20.7608 297.951L61.065 321.221C72.0194 327.545 86.0268 323.792 92.3513 312.838L92.3514 312.838C98.6759 301.883 94.9226 287.876 83.9682 281.551L43.664 258.282C32.7096 251.957 18.7022 255.71 12.3777 266.665Z" fill="#FFD23F"/>
<path d="M693.222 530.702L677.13 563.503C677.13 563.503 648.042 559.79 659.801 598.161C659.801 598.161 656.707 627.249 650.518 633.438C644.329 639.627 655.469 680.474 677.749 668.715C690.282 662.101 691.065 654.507 689.352 649.129C686.693 641.109 686.174 632.533 687.847 624.25C690.083 613.781 694.111 600.391 701.267 588.878C715.502 565.979 729.118 543.699 729.118 543.699L693.222 530.702Z" fill="#A0616A"/>
<path d="M652.994 328.942C652.994 328.942 617.717 320.278 605.958 326.467C594.199 332.656 559.541 333.275 559.541 333.275C559.541 333.275 530.453 380.311 537.26 404.447C544.068 428.584 572.537 443.438 572.537 443.438L668.466 444.057L683.938 380.929C683.938 380.929 676.512 337.607 670.323 335.131C664.134 332.656 652.994 328.942 652.994 328.942Z" fill="#3F3D56"/>
<path d="M621.43 165.554C650.483 165.554 674.036 142.002 674.036 112.948C674.036 83.8947 650.483 60.3422 621.43 60.3422C592.376 60.3422 568.824 83.8947 568.824 112.948C568.824 142.002 592.376 165.554 621.43 165.554Z" fill="#2F2E41"/>
<path d="M588.629 158.127C588.629 158.127 594.818 184.121 585.534 187.215C576.251 190.31 568.205 202.688 568.205 202.688L581.821 225.587L628.238 237.346L642.472 223.73L652.994 194.642L642.472 187.215C642.472 187.215 632.57 190.31 631.951 180.408C631.655 172.975 631.862 165.532 632.57 158.127L588.629 158.127Z" fill="#A0616A"/>
<path opacity="0.1" d="M588.629 158.127C588.629 158.127 594.818 184.121 585.534 187.215C576.251 190.31 568.205 202.688 568.205 202.688L581.821 225.587L628.238 237.346L642.472 223.73L652.994 194.642L642.472 187.215C642.472 187.215 632.57 190.31 631.951 180.408C631.655 172.975 631.862 165.532 632.57 158.127L588.629 158.127Z" fill="black"/>
<path d="M612.456 175.147C633.306 175.147 650.209 158.245 650.209 137.395C650.209 116.544 633.306 99.642 612.456 99.642C591.606 99.642 574.703 116.544 574.703 137.395C574.703 158.245 591.606 175.147 612.456 175.147Z" fill="#A0616A"/>
<path d="M610.29 223.73L574.394 190.929C574.394 190.929 558.303 204.544 556.446 204.544C554.589 204.544 530.453 211.971 529.834 215.066C529.215 218.16 550.876 250.962 550.876 250.962C550.876 250.962 545.925 275.098 550.876 285.62C555.827 296.141 552.114 341.32 552.114 341.32C552.114 341.32 584.915 329.561 602.244 335.131C619.573 340.701 670.323 335.131 670.323 335.131C670.323 335.131 677.749 287.476 674.655 281.287C671.56 275.098 670.942 239.821 670.942 239.821L697.554 210.734C697.554 210.734 691.984 188.453 670.942 187.215C649.899 185.978 636.902 184.74 636.902 184.74L610.29 223.73Z" fill="#2F2E41"/>
<path d="M568.205 375.978C568.205 375.978 498.889 344.415 471.039 329.561C443.188 314.708 400.485 326.467 414.1 359.887C427.716 393.307 503.84 426.109 503.84 426.109C503.84 426.109 528.596 444.676 543.449 444.057C558.303 443.438 579.655 443.747 579.655 443.747L568.205 375.978Z" fill="#3F3D56"/>
<path d="M675.274 380.311C675.274 380.311 799.672 381.548 791.626 427.965C783.58 474.382 735.925 551.744 727.261 553.601C718.596 555.458 687.033 541.842 687.033 537.51C687.033 533.177 717.359 453.34 717.359 453.34L643.091 430.441L675.274 380.311Z" fill="#3F3D56"/>
<path d="M698.792 241.678C698.792 241.678 706.218 312.851 702.505 323.991C698.792 335.131 685.795 365.457 669.085 380.311C652.375 395.164 628.857 470.05 615.86 434.154C602.863 398.258 636.902 378.454 636.902 378.454L671.023 330.448L671.344 252.322L698.792 241.678Z" fill="#A0616A"/>
<path d="M559.541 390.832C559.541 390.832 620.811 412.493 627.619 409.399C634.427 406.304 649.28 417.444 649.28 417.444C656.144 415.975 663.231 415.874 670.134 417.149C677.038 418.423 683.621 421.047 689.508 424.871C709.313 437.868 713.645 452.721 709.313 453.34C704.981 453.959 689.508 447.151 689.508 447.151C689.508 447.151 665.99 442.2 651.756 446.532C637.521 450.864 618.969 441.731 618.969 441.731L543.449 424.871L559.541 390.832Z" fill="#A0616A"/>
<path opacity="0.1" d="M559.541 390.832C559.541 390.832 620.811 412.493 627.619 409.399C634.427 406.304 649.28 417.444 649.28 417.444C656.144 415.975 663.231 415.874 670.134 417.149C677.038 418.423 683.621 421.047 689.508 424.871C709.313 437.868 713.645 452.721 709.313 453.34C704.981 453.959 689.508 447.151 689.508 447.151C689.508 447.151 665.99 442.2 651.756 446.532C637.521 450.864 618.969 441.731 618.969 441.731L543.449 424.871L559.541 390.832Z" fill="black"/>
<path d="M529.834 268.291C529.834 268.291 530.453 345.034 539.736 354.317C549.019 363.6 558.922 375.978 568.205 381.548C577.488 387.118 582.44 400.115 582.44 400.115C582.44 400.115 627 465.099 627.619 435.392C628.238 405.685 604.72 382.167 604.72 382.167L600.117 377.784C590.047 368.308 580.942 357.856 572.935 346.582C571.108 343.894 568.887 341.494 566.348 339.464C558.303 333.275 556.446 265.196 556.446 265.196L529.834 268.291Z" fill="#A0616A"/>
<path d="M684.557 203.307L697.554 210.734C697.554 210.734 702.505 243.535 704.981 247.867C707.456 252.199 674.655 263.34 669.704 260.245C664.753 257.151 662.277 226.825 662.277 226.825L684.557 203.307Z" fill="#2F2E41"/>
<path d="M537.879 214.447H529.834C529.834 214.447 521.169 223.73 521.788 243.535C522.407 263.339 514.361 275.717 519.312 277.574C524.264 279.431 548.96 269.603 548.68 272.351C548.4 275.098 561.397 270.147 561.397 270.147L552.733 237.346L537.879 214.447Z" fill="#2F2E41"/>
<path opacity="0.1" d="M475.681 341.32C475.681 341.32 513.434 357.411 523.955 359.887C534.476 362.363 568.481 391.331 568.481 391.331L545.269 426.578C545.269 426.578 521.48 423.633 508.483 421.158C495.486 418.682 418.124 367.314 431.121 358.649C444.118 349.985 475.681 341.32 475.681 341.32Z" fill="black"/>
<path d="M467.944 341.32C467.944 341.32 505.697 357.411 516.218 359.887C526.739 362.363 568.205 390.832 568.205 390.832L547.782 430.441C547.782 430.441 513.742 423.633 500.746 421.158C487.749 418.682 410.387 367.314 423.384 358.649C436.381 349.985 467.944 341.32 467.944 341.32Z" fill="#3F3D56"/>
<path d="M631.642 129.968C660.695 129.968 684.248 106.415 684.248 77.3618C684.248 48.3083 660.695 24.7558 631.642 24.7558C602.588 24.7558 579.036 48.3083 579.036 77.3618C579.036 106.415 602.588 129.968 631.642 129.968Z" fill="#2F2E41"/>
<path d="M646.495 49.5115C660.167 49.5115 671.251 38.428 671.251 24.7558C671.251 11.0835 660.167 0 646.495 0C632.823 0 621.739 11.0835 621.739 24.7558C621.739 38.428 632.823 49.5115 646.495 49.5115Z" fill="#2F2E41"/>
</g>
<defs>
<clipPath id="clip0">
<rect width="792" height="705" fill="white"/>
</clipPath>
</defs>
</svg>
